{"title":"Lone Survivor 2013 DVDSCR Xvid Ac3-MiLLENiUM","uid":9416110,"size":1918048294,"categoryP":"video","categoryS":"movies","magnet":"?xt=urn:btih:77b90a789a825af4e22c56b9c34bb298405c7748&amp;dn=Lone+Survivor+2013+DVDSCR+Xvid+Ac3-MiLLENiUM&amp;tr=udp%3A%2F%2Ftracker.openbittorrent.com%3A80&amp;tr=udp%3A%2F%2Fopen.demonii.com%3A1337&amp;tr=udp%3A%2F%2Ftracker.coppersurfer.tk%3A6969&amp;tr=udp%3A%2F%2Fexodus.desync.com%3A6969","seeders":4,"leechers":0,"uploader":"xxxlavalxxx","files":-1,"time":1388447122,"description":"\n &lt;a href=&quot;\nhttp://www.imdb.com/title/tt1091191/&quot; rel=&quot;nofollow&quot; target=&quot;_NEW&quot;&gt;\nhttp://www.imdb.com/title/tt1091191/&lt;/a&gt;\n\n\nBased on the failed June 28, 2005 mission &quot;Operation Red Wings&quot;. Four members of SEAL Team 10 were tasked with the mission to capture or kill notorious Taliban leader Ahmad Shahd.\n\nDirector: Peter Berg\nWriters: Peter Berg, Marcus Luttrell (book)\nStars: Mark Wahlberg, Taylor Kitsch, Emile Hirsch\nGenres: Action | Biography | Drama | Thriller | War\nCountry: USA\nLanguage: English\n\n\nGeneral\nComplete name                            : Lone Survivor 2013 DVDSCR Xvid Ac3-MiLLENiUM.avi\nSource                                   : VOBs-ManHaTTaN [thanks bro :wink:]\nFormat                                   : AVI\nFormat/Info                              : Audio Video Interleave\nFile size                                : 1.76 GiB\nDuration                                 : 2h 0mn\nOverall bit rate                         : 2 089 Kbps\nWriting application                      : VirtualDubMod 1.5.10.2 (build 2540/release)\nWriting library                          : VirtualDubMod build 2540/release\n\nVideo\nID                                       : 0\nFormat                                   : MPEG-4 Visual\nFormat profile                           : Advanced Simple@L5\nFormat settings, BVOP                    : 2\nFormat settings, QPel                    : No\nFormat settings, GMC                     : No warppoints\nFormat settings, Matrix                  : Default (H.263)\nMuxing mode                              : Packed bitstream\nCodec ID                                 : XVID\nCodec ID/Hint                            : XviD\nDuration                                 : 2h 0mn\nBit rate                                 : 1 695 Kbps\nWidth                                    : 720 pixels\nHeight                                   : 304 pixels\nDisplay aspect ratio                     : 2.35:1\nFrame rate                               : 23.976 fps\nColor space                              : YUV\nChroma subsampling                       : 4:2:0\nBit depth                                : 8 bits\nScan type                                : Progressive\nCompression mode                         : Lossy\nBits/(Pixel*Frame)                       : 0.323\nStream size                              : 1.43 GiB (81%)\nWriting library                          : XviD 64\n\nAudio\nID                                       : 1\nFormat                                   : AC-3\nFormat/Info                              : Audio Coding 3\nMode extension                           : CM (complete main)\nCodec ID                                 : 2000\nDuration                                 : 2h 0mn\nBit rate mode                            : Constant\nBit rate                                 : 384 Kbps\nChannel(s)                               : 6 channels\nChannel positions                        : Front: L C R, Side: L R, LFE\nSampling rate                            : 48.0 KHz\nBit depth                                : 16 bits\nCompression mode                         : Lossy\nStream size                              : 332 MiB (18%)\nAlignment                                : Split accross interleaves\nInterleave, duration                     : 42 ms (1.00 video frame)\nInterleave, preload duration             : 500 ms\n\nNotes : \n\nfull english sub file ripped from vobs included \n\n\nscreens\n &lt;a href=&quot;\nhttp://i.imgur.com/Wo1ZnWJ.png&quot; rel=&quot;nofollow&quot; target=&quot;_NEW&quot;&gt;\nhttp://i.imgur.com/Wo1ZnWJ.png&lt;/a&gt; &lt;a href=&quot;\nhttp://i.imgur.com/somTQM2.png&quot; rel=&quot;nofollow&quot; target=&quot;_NEW&quot;&gt;\nhttp://i.imgur.com/somTQM2.png&lt;/a&gt; &lt;a href=&quot;\nhttp://i.imgur.com/QQUODSM.png&quot; rel=&quot;nofollow&quot; target=&quot;_NEW&quot;&gt;\nhttp://i.imgur.com/QQUODSM.png&lt;/a&gt; &lt;a href=&quot;\nhttp://i.imgur.com/mS8rOoI.png&quot; rel=&quot;nofollow&quot; target=&quot;_NEW&quot;&gt;\nhttp://i.imgur.com/mS8rOoI.png&lt;/a&gt;","torrent":{"xt":"urn:btih:77b90a789a825af4e22c56b9c34bb298405c7748","amp;dn":"Lone+Survivor+2013+DVDSCR+Xvid+Ac3-MiLLENiUM","amp;tr":["udp%3A%2F%2Ftracker.openbittorrent.com%3A80","udp%3A%2F%2Fopen.demonii.com%3A1337","udp%3A%2F%2Ftracker.coppersurfer.tk%3A6969","udp%3A%2F%2Fexodus.desync.com%3A6969"],"infoHash":"77b90a789a825af4e22c56b9c34bb298405c7748","infoHashBuffer":{"type":"Buffer","data":[119,185,10,120,154,130,90,244,226,44,86,185,195,75,178,152,64,92,119,72]},"announce":[],"urlList":[]}}